<svg xmlns="http://www.w3.org/2000/svg" width="44" height="40" class="icon-logo-symbol"><g fill="#FFF" fill-rule="evenodd"><path d="M37.926 7.878c-.14-.049-.3-.044-.464-.033a.37.37 0 0 0-.346.358c-.004.19-.004.377.055.545.147.421.51.787.581 1.21.349 2.086.667 4.185-.454 6.172a1.92 1.92 0 0 0-.183.472c-.242.959-.55 1.909-.683 2.883-.247 1.785-.621 3.503-1.611 5.052-2.368 3.7-5.817 5.97-9.9 7.277-2.494.798-5.132.768-7.735.736-.65-.008-.793.24-.66.808.339 1.44 1.049 2.676 1.997 3.801 1.877 2.224 6.77 3.11 9.475.11 1.396-1.548 3.164-2.512 5.096-3.248a70.256 70.256 0 0 0 4.794-2.056c1.325-.621 2.49-1.484 3.26-2.772.692-1.158.612-2.007-.23-3.051-.287-.355-.573-.712-.88-1.095a.37.37 0 0 1 .085-.54c.17-.112.32-.21.47-.303 1.377-.855 2.352-1.951 2.389-3.689.052-2.373.184-4.744.198-7.118.004-.547-.24-1.157-.535-1.635-1.125-1.82-2.675-3.169-4.72-3.884ZM20.209.52c-1.072-.149-2.15-.268-3.22-.436-1.52-.237-2.893.008-4.159.962-.562.425-1.265.687-1.936.941-.838.317-1.464.831-1.722 1.687-.194.64-.379 1.313-.392 1.975-.057 2.897.633 5.685 1.364 8.46.097.37.358.695.544 1.04.077.129.12.25.19.22.053-.02.04-.163.03-.302 0-1.148-.02-2.296.006-3.441.05-2.309.598-4.464 1.978-6.366.857-1.18 1.945-1.99 3.38-2.326 1.054-.246 2.112-.495 3.143-.818.55-.173 1.072-.471 1.566-.778.391-.243.297-.525-.111-.677a3.217 3.217 0 0 0-.661-.142Z"/><path d="M34.064 14.778c-.078-.664-.207-1.323-.313-1.984-.128-.478-.128-.478-.27-.016-.239.834-.48 1.668-.716 2.502-.97 3.45-4.648 6.442-8.434 5.692a18.67 18.67 0 0 1-1.969-.5c-2.177-.682-4.333-1.434-6.521-2.073-2.13-.623-3.918-.012-5.318 1.723-.915 1.135-.687 2.057.688 2.548.94.335 1.664.905 2.165 1.752.425.72.811 1.462 1.21 2.197.614 1.137 1.424 2.073 2.576 2.713 2.76 1.534 5.571 1.723 8.451.381 4.97-2.315 9.261-8.081 8.45-14.935Z"/><path d="M16.3 11.613c.792-2.44 2.175-4.464 4.284-5.947 2.957-2.079 6.994-1.955 10.415.235 1.934 1.238 3.11 2.888 3.286 5.235.08 1.03.327 2.052.56 3.063.05.208.18 1.526.424 1.414.328-.148.62-1.063.632-1.19.296-2.769.164-5.516-.585-8.204-.553-1.988-1.83-3.364-3.83-3.965-1.687-.508-3.384-.995-5.098-1.394-1.011-.236-2.063-.286-3.041.258-1.658.924-3.36 1.776-4.97 2.775-.984.612-1.976 1.319-2.711 2.196-1.745 2.08-2.417 4.562-2.213 7.274.072.946.61 1.322 1.46.894.361-.181.674-.589.855-.966.252-.524.35-1.12.531-1.678Z"/><path d="M26.827 9.938c.523.475.523 1.802.113 2.252a5.868 5.868 0 0 1-1.576 1.443c-1.267.801-2.904.315-4.054-1.108-.73-.9-.585-2.057.396-3.187 1.76-2.027 5.675-2.401 7.665-.584.234.213 1.173 1.093.875 3.278-.143 1.08-.956 1.868-1.69 2.62-.884.907-1.809 1.776-2.65 2.719-.246.276-.461.847-.335 1.111.129.269.73.504 1.066.442.735-.136 1.513-.345 2.13-.746 1.516-.987 2.558-2.438 3.26-4.078 1.115-2.61.321-5.672-2.196-6.99-1.356-.709-2.83-.876-4.315-1.07-1.801-.235-3.492.775-4.808 1.973-1.888 1.718-3.13 3.837-4.098 6.153-.545 1.307-.288 2.272.884 3.051 1.38.917 2.922 1.395 4.565 1.155.66-.097 1.385-.491 1.862-.97 1.034-1.035 1.955-2.191 2.871-3.338.78-.976 1.526-1.867 1.51-3.34-.296-2.292-2.187-2.266-2.98-2.225-1.417.074-2.952.939-3.094 2.446-.01.094.113.14.165.062.44-.665 2.47-2.75 4.434-1.069Z"/><path d="M24.545 11.344c.018-.132.032-.265.037-.397.005-.14-.029-.352-.12-.406a.564.564 0 0 0-.474-.014c-.717.385-.718 1.318-.016 1.73.634.373 1.486.254 1.806-.35a.088.088 0 0 0-.082-.132c-.132.008-.361.066-.755.046a.422.422 0 0 1-.396-.477ZM9.044 15.674c-.44-1.82-.839-3.648-1.263-5.471-.142-.61-.552-.902-1.172-.928-1.289-.057-2.295.494-3.021 1.508-1.075 1.502-1.842 3.142-2.205 4.98-.239 1.208-.548 2.417-.97 3.574-.664 1.817-.68 3.773 1.104 5.056a288.088 288.088 0 0 0 6.777 4.727c1.175.795 2.515 1.247 3.918 1.434 1.139.151 2.29.22 3.437.316.216.02.307-.268.12-.376-.18-.104-.361-.203-.514-.334-.87-.747-1.845-1.41-2.562-2.285-1.613-1.966-3.09-4.042-4.627-6.07a1.826 1.826 0 0 1-.207-1.846c.232-.523.493-1.037.763-1.542.464-.868.66-1.759.422-2.743Z"/></g></svg>