<svg xmlns="http://www.w3.org/2000/svg" xmlns:xlink="http://www.w3.org/1999/xlink" width="170" height="89" class="icon-logo-white"><defs><path id="a" d="M.625.722h20.907v16.302H.625z"/><path id="c" d="M0 .607h169.668v20.896H0z"/></defs><g fill="none" fill-rule="evenodd"><g transform="translate(70.113)"><mask id="b" fill="#fff"><use xlink:href="#a"/></mask><path fill="#FFF" d="M18.781 3.197c.208-.158.371-.244.488-.266.219-.032.193.198-.079.688l-3.13 5.576c-1.12 1.932-1.492 3.585-1.116 4.963.053.156.11.312.174.47.213.464.514.852.89 1.182.721-.135.655-.577.484-.916a2.46 2.46 0 0 1-.588-1.002 2.707 2.707 0 0 1-.11-.792c0-.286.033-.605.102-.955.068-.35.188-.733.361-1.15.173-.418.39-.856.653-1.316l3.837-6.81.674-1.174c.148-.2.148-.397 0-.596a.525.525 0 0 0-.393-.19.533.533 0 0 0-.235.064c-.45.168-.928.394-1.431.673-2.579 1.483-5.067 4.044-7.468 7.69-.125.166-.23.28-.313.343-.168.105-.203-.056-.11-.484.366-1.785.645-3.022.833-3.71.262-1.004.539-1.772.833-2.304.241-.438.518-.756.833-.956.314-.114.603-.323.717-.62.099-.467-.11-.705-.15-.726-.957-.782-3.12 1.59-3.12 1.59-.398.46-.991 1.214-1.599 2.28L6.063 11.4c-.985 1.586-1.835 2.73-2.548 3.43-.776.73-1.586 1.132-2.436 1.205 0 0-.508.118-.45.505.04.255.105.483.513.483.281 0 2.096-.58 3.05-1.488.764-.742 1.671-1.948 2.719-3.618v-.031l3.758-6.654c.21-.376.408-.71.597-1.002.094-.147.188-.236.283-.268.126-.03.14.1.046.394-.074.26-.155.551-.251.876-.189.71-.47 1.974-.85 3.788a123.32 123.32 0 0 1-.927 4.243.645.645 0 0 0-.014.142v.11c.041.23.172.36.393.39.02.012.04.016.063.016.241.01.403-.092.486-.312 2.58-4.844 5.34-8.317 8.286-10.413" mask="url(#b)"/></g><path fill="#FFF" d="M97.906 13.714c-1.086 1.845-2.191 3.167-3.36 4.111a9.4 9.4 0 0 1-3.666 1.882 8.462 8.462 0 0 1-1.445.312l-.415.86c-.48.982-.968 1.99-1.637 2.74-.732.847-1.64 1.357-2.904 1.248a3.777 3.777 0 0 1-.573-.099c-.831-.186-1.42-.599-1.792-1.09a2.658 2.658 0 0 1-.469-1.73l.04-.36c.487-2.208 2.41-2.302 4.896-2.43.671-.043 1.364-.06 2.09-.152.277-.564 1.021-2.14 1.294-2.706-.634.442-1.363.487-2.095.393l-.028-.003-.025-.004c-.709-.089-1.146-.458-1.411-.934-.216-.445-.356-.893-.206-1.463 0 0 .587-1.679.903-2.368.17-.343.52-1.082.999-2.015.58-1.15.85-1.672 1.497-2.922.136-.27.464-.36.742-.22a.54.54 0 0 1 .236.735c-.718 1.422-.993 1.97-1.473 2.929-.444.882-.817 1.59-.99 1.96-.305.732-.79 2.045-.79 2.045a.973.973 0 0 0 .092.847c.088.167.259.294.547.33l.028.006c1.623.206 2.738-1.2 3.816-2.99l.037-.076c.028-.022.028-.022.031-.05.136-.27.303-.561.44-.83.755-1.52 1.492-2.871 2.071-3.998l.029-.02.001-.027a.527.527 0 0 1 .742-.22c.277.14.401.47.264.741l-.03.02-.004.026c-.6 1.098-1.31 2.45-2.092 3.968-.551 1.106-1.133 2.283-1.82 3.657-.482.982-.966 1.965-1.45 2.971.193-.054.382-.08.546-.138 1.124-.298 2.193-.815 3.246-1.674 1.079-.852 2.12-2.078 3.11-3.802a.52.52 0 0 1 .741-.193c.279.139.37.49.237.733Zm-9.787 6.453c-.512.037-.991.054-1.475.096-2.002.085-3.554.176-3.87 1.568l-.027.235c-.012.335.056.682.263.971.23.315.577.544 1.122.664.127.042.284.06.442.082.841.083 1.47-.308 1.96-.873.58-.655 1.028-1.59 1.477-2.5l.108-.243Z"/><g transform="translate(0 34.452)"><mask id="d" fill="#fff"><use xlink:href="#c"/></mask><path fill="#FFF" d="M8.438 1.088H.044c-.058 0-.058.45 0 .45h2.524c.058 0 .117.027.117.11v18.815c0 .086-.059.114-.117.114H.044c-.058 0-.058.449 0 .449h9.01c.059 0 .059-.45 0-.45H6.56c-.088 0-.148-.027-.148-.113V12.59a9.712 9.712 0 0 0 2.672.338c4.46 0 7.19-2.307 7.19-5.71 0-3.43-2.759-6.13-7.836-6.13Zm.646 11.39c-1.204 0-1.85-.086-2.672-.451V1.649c0-.084.06-.11.148-.11h1.878c2.64 0 4.196 1.6 4.196 5.679 0 4.049-.91 5.26-3.55 5.26ZM29.422.607c-5.341 0-9.216 4.866-9.216 10.463 0 5.765 4.14 10.432 9.216 10.432 5.136 0 9.246-4.667 9.246-10.432 0-5.793-4.11-10.464-9.246-10.464Zm3.257 19.405c-.879.817-1.965 1.07-3.257 1.07-1.29 0-2.347-.253-3.198-1.07-1.379-1.322-2.026-3.43-2.026-8.942 0-4.81.647-7.65 2.026-8.971.851-.788 1.907-1.042 3.198-1.042 1.292 0 2.378.254 3.257 1.042 1.352 1.32 1.997 4.162 1.997 8.97 0 5.512-.645 7.621-1.997 8.943ZM52.374.607c-5.341 0-9.216 4.867-9.216 10.464 0 5.765 4.138 10.432 9.216 10.432 5.136 0 9.244-4.667 9.244-10.432 0-5.793-4.108-10.464-9.244-10.464Zm3.257 19.406c-.879.817-1.966 1.07-3.257 1.07-1.29 0-2.349-.253-3.198-1.07-1.38-1.322-2.026-3.43-2.026-8.942 0-4.81.645-7.65 2.026-8.971.85-.788 1.907-1.042 3.198-1.042s2.378.254 3.257 1.042c1.351 1.32 1.997 4.162 1.997 8.97 0 5.512-.646 7.621-1.997 8.943ZM78.435 1.538c.06 0 .06-.45 0-.45h-9.01c-.058 0-.058.45 0 .45h2.524c.088 0 .148.027.148.11v17.129c0 1.546-.617 2.306-2.025 2.306-.94 0-1.938-.816-1.938-1.717 0-1.236 1.322-.87 1.322-2.53 0-1.154-.94-2.14-2.055-2.14-1.056 0-2.26.96-2.26 2.505 0 2.109 2.347 4.302 4.931 4.302 3.492 0 5.694-1.912 5.694-5.174V1.649c0-.084.058-.11.176-.11h2.493Zm21.397 19.488c.058 0 .058-.45 0-.45h-2.466a.353.353 0 0 1-.233-.083L89.618.693c-.03-.086-.44-.086-.469 0l-6.811 18.702c-.38 1.098-.44 1.182-.704 1.182h-2.2c-.06 0-.06.449 0 .449h5.546c.09 0 .09-.45 0-.45h-2.434c-.148 0-.119-.169.233-1.18l1.82-4.95h6.457l2.143 6.047c.03.028-.03.084-.118.084h-2.553c-.059 0-.059.449 0 .449h9.304Zm-8.923-7.03h-6.164l3.113-8.664 3.05 8.664Zm26.973-3.601c2.378 0 5.137-1.996 5.137-4.696 0-3.12-2.995-4.611-6.576-4.611h-8.159c-.09 0-.09.45 0 .45h2.495c.087 0 .147.027.147.11v18.815c0 .086-.06.114-.147.114h-2.495c-.09 0-.09.449 0 .449h9.508c4.432 0 6.635-2.616 6.635-5.288 0-3.346-3.024-5.343-6.545-5.343Zm-.97-.224h-2.287V1.649c0-.084.056-.11.175-.11h1.173c2.79 0 3.67.954 3.67 4.272 0 3.46-.675 4.36-2.731 4.36Zm.118 10.406h-2.23c-.119 0-.175-.028-.175-.114v-9.87h1.995c2.846 0 4.167.814 4.167 5.316 0 3.682-1.115 4.668-3.757 4.668ZM137.958.607c-5.343 0-9.218 4.867-9.218 10.464 0 5.765 4.139 10.432 9.218 10.432 5.135 0 9.244-4.667 9.244-10.432 0-5.793-4.109-10.464-9.244-10.464Zm3.257 19.406c-.883.817-1.968 1.07-3.257 1.07-1.293 0-2.35-.253-3.2-1.07-1.381-1.322-2.025-3.43-2.025-8.942 0-4.81.644-7.65 2.024-8.971.852-.788 1.908-1.042 3.2-1.042 1.29 0 2.375.254 3.258 1.042 1.35 1.32 1.995 4.162 1.995 8.97 0 5.512-.646 7.621-1.995 8.943Zm28.41 1.013c.058 0 .058-.45 0-.45h-2.73a.473.473 0 0 1-.265-.083l-6.397-11.25 3.932-6.525c.647-1.07.851-1.18.939-1.18h2.613c.058 0 .058-.45 0-.45h-5.9c-.058 0-.058.45 0 .45h2.26c.323 0 .294.083-.38 1.18l-3.7 6.076-4.05-7.145c0-.056 0-.11.119-.11h2.67c.058 0 .058-.451 0-.451h-9.773c-.06 0-.06.45 0 .45h2.758c.089 0 .206.055.235.11l5.87 10.239-4.548 7.508c-.618 1.098-.881 1.182-.941 1.182h-2.612c-.058 0-.058.449 0 .449h5.9c.058 0 .058-.45 0-.45h-2.289c-.266 0-.235-.083.44-1.18l4.285-7.03 4.58 8.127c.027.028 0 .084-.09.084h-2.7c-.06 0-.06.449 0 .449h9.774Z" mask="url(#d)"/></g><path fill="#FFF" d="M22.575 83.872h1.251v-7.433h2.406V75.26H20.17v1.178h2.406v7.433Zm6.204 0h1.264v-2.786h3.895v2.786H35.2v-8.611h-1.262v4.635h-3.895V75.26H28.78v8.611Zm9.565 0h5.315v-1.178h-4.05v-1.759h3.441v-1.153h-3.442v-3.343h3.883V75.26h-5.147v8.611Zm11.472 0h1.215l.465-1.214H55.2l.465 1.214h1.308l-3.548-8.7h-.143l-3.466 8.7Zm2.108-2.342 1.011-2.686c.204-.506.394-1.278.394-1.278s.202.772.405 1.278l1.012 2.686h-2.822Zm11.458-.316c1.06-.495 1.62-1.408 1.62-2.736 0-1.977-1.25-3.217-3.49-3.217h-2.024v8.611h1.262v-2.215h.763c.226 0 .452-.026.678-.052l1.454 2.267h1.453l-1.716-2.658Zm-2.632-.711v-4.064h.714c1.584 0 2.251.747 2.251 2.039 0 1.278-.642 2.025-2.25 2.025h-.715Zm8.826 3.369h1.251v-7.433h2.406V75.26H67.17v1.178h2.406v7.433Zm13.676-7.065c-2.053 0-3.906 2.146-3.906 4.493 0 1.612 1.025 2.717 2.404 2.717 2.053 0 3.891-2.163 3.891-4.476 0-1.613-1.012-2.734-2.39-2.734Zm.076 5.763c-.382.7-.842 1.075-1.548 1.075-.889 0-1.102-.601-1.102-1.4 0-.863.643-3.338.981-3.975.366-.7.812-1.074 1.562-1.074.859 0 1.086.618 1.086 1.4 0 .862-.642 3.322-.979 3.974Zm10.92-10.796c-1.623 0-3.003 1.678-3.722 4.104-.123.31-.153.505-.276.91h-1.562c-.03 0-.17.375-.138.375h1.592c-.659 2.493-1.348 6.041-2.007 8.257-.795 2.589-1.118 3.19-1.882 3.19-.322 0-.644-.177-.644-.521 0-.277.306-.602.306-.976 0-.358-.199-.617-.674-.617-.411 0-.763.358-.763.927 0 .83.794 1.577 1.682 1.577 1.716 0 2.741-1.757 3.522-4.217.537-1.774 1.288-5.03 1.947-7.62h1.807c.015 0 .122-.375.091-.375h-1.792c.062-.242.26-.974.322-1.186.888-3 1.501-3.439 2.084-3.439.444 0 .657.246.657.639 0 .275-.29.617-.29 1.023 0 .327.182.571.674.571.427 0 .766-.342.766-.896 0-.782-.52-1.726-1.7-1.726Zm12.08 11.11v-3.356h-3.335v1.177h2.18v1.52c-.453.33-1.168.557-2.003.557-1.833 0-3.024-1.38-3.024-3.215 0-1.836 1.18-3.206 2.871-3.206.965 0 1.56.332 2.024.849l.846-.898c-.656-.785-1.632-1.153-2.87-1.153-2.406 0-4.157 1.837-4.157 4.408 0 2.57 1.786 4.417 4.31 4.417 1.515 0 2.634-.593 3.158-1.1Zm2.967.988h1.25v-8.611h-1.25v8.611Zm4.43 0h1.263v-2.786h3.429v-1.19h-3.429v-3.457h3.775V75.26h-5.039v8.611Zm9.67 0h1.252v-7.433h2.406V75.26h-6.063v1.178h2.405v7.433Zm6.254 0h1.251v-8.611h-1.25v8.611Zm10.744.09h.155v-8.701h-1.168v4.737c0 .48.084 1.24.084 1.24s-.44-.607-.751-.962l-4.465-5.103h-.168v8.699h1.168v-4.747c0-.535-.084-1.242-.084-1.242s.44.595.762.961l4.467 5.118Zm10.398-1.078v-3.356h-3.335v1.177h2.18v1.52c-.452.33-1.166.557-2 .557-1.836 0-3.026-1.38-3.026-3.215 0-1.836 1.179-3.206 2.87-3.206.964 0 1.56.332 2.024.849l.846-.898c-.655-.785-1.631-1.153-2.87-1.153-2.405 0-4.157 1.837-4.157 4.408 0 2.57 1.786 4.417 4.312 4.417 1.513 0 2.632-.593 3.156-1.1Z"/></g></svg>